<svg xmlns="http://www.w3.org/2000/svg" version="1.1" xmlns:xlink="http://www.w3.org/1999/xlink" xmlns:svgjs="http://svgjs.dev/svgjs" width="1500" height="1500" viewBox="0 0 1500 1500"><rect width="1500" height="1500" fill="#ffffff"></rect><g transform="matrix(0.6666666666666666,0,0,0.6666666666666666,249.39393939393938,593.9226052840056)"><svg viewBox="0 0 396 124" data-background-color="#ffffff" preserveAspectRatio="xMidYMid meet" height="469" width="1500" xmlns="http://www.w3.org/2000/svg" xmlns:xlink="http://www.w3.org/1999/xlink"><g id="tight-bounds" transform="matrix(1,0,0,1,0.2400000000000091,-0.10150230879540345)"><svg viewBox="0 0 395.52 124.20300461759084" height="124.20300461759084" width="395.52"><g><svg viewBox="0 0 605.043160444182 189.99842852571425" height="124.20300461759084" width="395.52"><g transform="matrix(1,0,0,1,209.52316044418205,53.646573760502335)"><svg viewBox="0 0 395.52 82.70528100470958" height="82.70528100470958" width="395.52"><g id="textblocktransform"><svg viewBox="0 0 395.52 82.70528100470958" height="82.70528100470958" width="395.52" id="textblock"><g><svg viewBox="0 0 395.52 82.70528100470958" height="82.70528100470958" width="395.52"><g transform="matrix(1,0,0,1,0,0)"><svg width="395.52" viewBox="1.65 -32.7 159.23999999999998 33.300000000000004" height="82.70528100470958" data-palette-color="#c56e33"><path d="M1.75 0Q1.65 0 1.65-0.3 1.65-0.6 1.75-0.6L1.75-0.6Q3.4-0.6 4.15-0.85 4.9-1.1 5.18-1.83 5.45-2.55 5.45-4.05L5.45-4.05 5.45-19.35Q5.45-20.85 5.18-21.55 4.9-22.25 4.15-22.53 3.4-22.8 1.75-22.8L1.75-22.8Q1.65-22.8 1.65-23.1 1.65-23.4 1.75-23.4L1.75-23.4 19.15-23.4Q19.65-23.4 19.65-23L19.65-23 19.7-19.9Q19.75-18.95 19.75-17.5L19.75-17.5Q19.75-17.35 19.45-17.35 19.15-17.35 19.15-17.5L19.15-17.5Q18.95-19.8 17.48-21.28 16-22.75 13.85-22.75L13.85-22.75 12.45-22.75Q10.7-22.75 9.9-22.48 9.1-22.2 8.8-21.5 8.5-20.8 8.5-19.3L8.5-19.3 8.5-4.25Q8.5-2.8 8.8-2.08 9.1-1.35 9.93-1.07 10.75-0.8 12.45-0.8L12.45-0.8 14.85-0.8Q16.9-0.8 18.48-2.43 20.05-4.05 20.6-6.65L20.6-6.65Q20.6-6.8 20.88-6.8 21.15-6.8 21.15-6.65L21.15-6.65Q20.8-3.05 20.8-0.75L20.8-0.75Q20.8-0.35 20.65-0.18 20.5 0 20.05 0L20.05 0 1.75 0ZM17.15-10.75Q16.95-10.75 14.98-11.08 13-11.4 7.25-11.4L7.25-11.4 7.25-12.45Q12.95-12.45 14.93-12.7 16.9-12.95 17.15-12.95L17.15-12.95Q17.4-12.95 17.4-11.9L17.4-11.9Q17.4-10.75 17.15-10.75L17.15-10.75ZM32.6-30.35Q29.5-30.35 27.92-28.75 26.35-27.15 25.65-23.3L25.65-23.3Q25.65-23.2 25.37-23.2 25.1-23.2 25.1-23.3L25.1-23.3Q25.3-25.1 25.55-28 25.8-30.9 25.8-32.35L25.8-32.35Q25.8-32.6 26.07-32.6 26.35-32.6 26.35-32.35L26.35-32.35Q26.35-31.25 29.05-31.25L29.05-31.25Q33.35-31.1 39.1-31.1L39.1-31.1Q42.05-31.1 45.35-31.2L45.35-31.2 48.75-31.25Q50.55-31.25 51.42-31.5 52.3-31.75 52.55-32.5L52.55-32.5Q52.6-32.7 52.85-32.7 53.1-32.7 53.1-32.5L53.1-32.5Q52.95-31.05 52.8-28.1 52.65-25.15 52.65-23.3L52.65-23.3Q52.65-23.2 52.35-23.2 52.05-23.2 52.05-23.3L52.05-23.3Q51.9-27.2 50.45-28.78 49-30.35 45.65-30.35L45.65-30.35Q43.4-30.35 42.45-30.15 41.5-29.95 41.15-29.3 40.8-28.65 40.8-27.1L40.8-27.1 40.8-4.05Q40.8-2.5 41.15-1.8 41.5-1.1 42.5-0.85 43.5-0.6 45.65-0.6L45.65-0.6Q45.8-0.6 45.8-0.3 45.8 0 45.65 0L45.65 0Q44 0 43-0.05L43-0.05 39.1-0.1 35.35-0.05Q34.35 0 32.6 0L32.6 0Q32.5 0 32.5-0.3 32.5-0.6 32.6-0.6L32.6-0.6Q34.75-0.6 35.75-0.85 36.75-1.1 37.12-1.83 37.5-2.55 37.5-4.05L37.5-4.05 37.5-27.2Q37.5-28.75 37.15-29.38 36.8-30 35.85-30.18 34.9-30.35 32.6-30.35L32.6-30.35ZM65.45-0.6Q65.55-0.6 65.55-0.3 65.55 0 65.45 0L65.45 0Q64.05 0 63.3-0.05L63.3-0.05 60.15-0.1 57.2-0.05Q56.35 0 54.9 0L54.9 0Q54.8 0 54.8-0.3 54.8-0.6 54.9-0.6L54.9-0.6Q56.55-0.6 57.32-0.85 58.1-1.1 58.4-1.83 58.7-2.55 58.7-4.05L58.7-4.05 58.7-19.35Q58.7-20.85 58.42-21.55 58.15-22.25 57.37-22.53 56.6-22.8 54.95-22.8L54.95-22.8Q54.85-22.8 54.85-23.1 54.85-23.4 54.95-23.4L54.95-23.4 57.25-23.35Q59.05-23.25 60.15-23.25L60.15-23.25Q61.05-23.25 61.82-23.3 62.6-23.35 63.15-23.4L63.15-23.4Q64.75-23.55 66.1-23.55L66.1-23.55Q69.35-23.55 71.05-22.3 72.75-21.05 72.75-18.7L72.75-18.7Q72.75-16.65 71.55-14.9 70.35-13.15 68.25-12.13 66.15-11.1 63.65-11.1L63.65-11.1Q62.05-11.1 60.9-11.3L60.9-11.3 60.85-12.3Q62.1-11.95 64-11.95L64-11.95Q67.1-11.95 68.32-13.33 69.55-14.7 69.55-17.35L69.55-17.35Q69.55-22.85 64.8-22.85L64.8-22.85Q62.9-22.85 62.32-22.05 61.75-21.25 61.75-19.25L61.75-19.25 61.75-4.05Q61.75-2.5 62-1.8 62.25-1.1 63-0.85 63.75-0.6 65.45-0.6L65.45-0.6ZM80.3-0.6Q80.4-0.6 80.4-0.3 80.4 0 80.3 0L80.3 0 74.45 0Q73.55 0 71.2-3.1 68.85-6.2 65.6-11.6L65.6-11.6 68.25-12.65Q71.15-7.9 73.1-5.35 75.05-2.8 76.72-1.7 78.4-0.6 80.3-0.6L80.3-0.6ZM88.44-11.5L89.24-12.4 98.34-12.4 98.69-11.5 88.44-11.5ZM107.59-0.6Q107.79-0.6 107.79-0.3 107.79 0 107.59 0L107.59 0Q106.69 0 104.69-0.1L104.69-0.1Q102.69-0.2 101.79-0.2L101.79-0.2Q100.99-0.2 99.69-0.1L99.69-0.1Q98.39 0 97.69 0L97.69 0Q97.49 0 97.49-0.3 97.49-0.6 97.69-0.6L97.69-0.6Q99.04-0.6 99.67-0.93 100.29-1.25 100.29-2.05L100.29-2.05Q100.29-2.75 99.64-4.2L99.64-4.2 92.04-20.6 93.34-21.7 87.09-6.15Q86.29-4.25 86.29-3L86.29-3Q86.29-1.7 87.19-1.15 88.09-0.6 89.94-0.6L89.94-0.6Q90.19-0.6 90.19-0.3 90.19 0 89.94 0L89.94 0Q89.19 0 87.89-0.1L87.89-0.1Q86.49-0.2 85.29-0.2L85.29-0.2Q84.04-0.2 82.34-0.1L82.34-0.1Q80.84 0 79.94 0L79.94 0Q79.69 0 79.69-0.3 79.69-0.6 79.94-0.6L79.94-0.6Q81.49-0.6 82.39-1.03 83.29-1.45 84.07-2.7 84.84-3.95 85.94-6.6L85.94-6.6 93.14-24.15Q93.24-24.35 93.44-24.35 93.64-24.35 93.69-24.15L93.69-24.15 101.74-6.85Q103.04-4.05 103.82-2.8 104.59-1.55 105.42-1.07 106.24-0.6 107.59-0.6L107.59-0.6ZM122.69-24Q124.59-24 126.77-23.63 128.94-23.25 130.29-22.55L130.29-22.55Q130.64-22.4 130.74-22.25 130.84-22.1 130.89-21.7L130.89-21.7 131.39-16.55Q131.39-16.4 131.12-16.35 130.84-16.3 130.79-16.5L130.79-16.5Q129.89-19.95 127.52-21.6 125.14-23.25 121.64-23.25L121.64-23.25Q119.04-23.25 116.94-21.85 114.84-20.45 113.67-18.03 112.49-15.6 112.49-12.55L112.49-12.55Q112.49-9.45 113.69-6.58 114.89-3.7 117.27-1.9 119.64-0.1 122.99-0.1L122.99-0.1Q126.04-0.1 128.17-1.8 130.29-3.5 131.24-7L131.24-7Q131.24-7.15 131.49-7.15L131.49-7.15Q131.59-7.15 131.72-7.08 131.84-7 131.84-6.95L131.84-6.95 131.19-1.65Q131.14-1.25 131.04-1.1 130.94-0.95 130.49-0.75L130.49-0.75Q126.64 0.6 122.49 0.6L122.49 0.6Q117.74 0.6 114.69-1.3 111.64-3.2 110.29-6.05 108.94-8.9 108.94-11.8L108.94-11.8Q108.94-15.2 110.74-18 112.54-20.8 115.69-22.4 118.84-24 122.69-24L122.69-24ZM135.79 0Q135.69 0 135.69-0.3 135.69-0.6 135.79-0.6L135.79-0.6Q137.44-0.6 138.21-0.85 138.99-1.1 139.29-1.83 139.59-2.55 139.59-4.05L139.59-4.05 139.59-19.35Q139.59-20.85 139.31-21.55 139.04-22.25 138.26-22.53 137.49-22.8 135.84-22.8L135.84-22.8Q135.74-22.8 135.74-23.1 135.74-23.4 135.84-23.4L135.84-23.4 138.09-23.35Q139.99-23.25 141.04-23.25L141.04-23.25Q142.29-23.25 144.19-23.35L144.19-23.35 146.34-23.4Q146.44-23.4 146.44-23.1 146.44-22.8 146.34-22.8L146.34-22.8Q144.74-22.8 143.94-22.5 143.14-22.2 142.86-21.48 142.59-20.75 142.59-19.25L142.59-19.25 142.59-4.05Q142.59-2.5 142.86-1.8 143.14-1.1 143.89-0.85 144.64-0.6 146.34-0.6L146.34-0.6Q146.44-0.6 146.44-0.3 146.44 0 146.34 0L146.34 0Q144.94 0 144.14-0.05L144.14-0.05 141.04-0.1 138.09-0.05Q137.24 0 135.79 0L135.79 0ZM155.49 0Q153.89 0 153.64-0.15 153.39-0.3 152.11-2.33 150.84-4.35 148.54-7.25L148.54-7.25 144.34-12.6 146.54-14.55 150.19-9.9Q153.94-5.05 155.39-3.38 156.84-1.7 157.91-1.15 158.99-0.6 160.74-0.6L160.74-0.6Q160.89-0.6 160.89-0.3 160.89 0 160.74 0L160.74 0 155.49 0ZM150.54-19.45Q152.54-21.35 152.54-22.05L152.54-22.05Q152.54-22.45 151.99-22.63 151.44-22.8 150.19-22.8L150.19-22.8Q150.04-22.8 150.04-23.1 150.04-23.4 150.19-23.4L150.19-23.4 152.04-23.35Q153.64-23.25 155.34-23.25L155.34-23.25Q157.29-23.25 158.79-23.35L158.79-23.35Q159.24-23.4 159.89-23.4L159.89-23.4Q160.04-23.4 160.04-23.1 160.04-22.8 159.89-22.8L159.89-22.8Q158.19-22.8 155.86-21.88 153.54-20.95 151.59-19.05L151.59-19.05 141.69-9.35 140.49-9.35 150.54-19.45Z" opacity="1" transform="matrix(1,0,0,1,0,0)" fill="#000000" class="wordmark-text-0" data-fill-palette-color="primary" id="text-0"></path></svg></g></svg></g></svg></g></svg></g><g><svg viewBox="0 0 189.99842852571425 189.99842852571425" height="189.99842852571425" width="189.99842852571425"><g><svg></svg></g><g id="icon-0"><svg viewBox="0 0 189.99842852571425 189.99842852571425" height="189.99842852571425" width="189.99842852571425"><g><rect width="172.75783038171426" height="172.75783038171426" x="8.620299071999995" y="8.620299071999995" fill="#000000" data-fill-palette-color="accent"></rect><rect width="172.75783038171426" height="172.75783038171426" x="17.240598143999993" y="-3.552713678800501e-15" fill="#000000" opacity="0.5" data-fill-palette-color="accent"></rect></g><g transform="matrix(1,0,0,1,34.82669668319318,24.62942591999999)"><svg viewBox="0 0 120.34503515932789 140.73957668571427" height="140.73957668571427" width="120.34503515932789"><g><svg xmlns="http://www.w3.org/2000/svg" xmlns:xlink="http://www.w3.org/1999/xlink" version="1.1" x="0" y="0" viewBox="8.179391041446483 1.1025311273793506 83.63800877872313 97.81191168185195" enable-background="new 0 0 100 100" xml:space="preserve" height="140.73957668571427" width="120.34503515932789" class="icon-dxe-0" data-fill-palette-color="quaternary" id="dxe-0"><path d="M63.6 48.1C68.8 42.9 68.8 34.4 63.5 29.2 58.3 24 49.8 24 44.6 29.3 39.4 34.5 39.4 43 44.7 48.2S58.4 53.3 63.6 48.1M49.3 33.8C52 31.1 56.4 31.1 59.1 33.8S61.8 40.9 59.1 43.6 52 46.3 49.3 43.6 46.6 36.6 49.3 33.8M36.7 98.8L80.1 84C81.6 83.5 82.6 82.1 82.6 80.5V63.5C88.5 56.6 92.1 47.6 91.8 37.8 91.3 18.6 76 2.5 56.9 1.2 35.7-0.3 17.9 15.7 16.5 36.3H16.4V37.3C16.4 40.7 15.1 46 13.5 49.1 11.8 52.3 10.1 55.4 8.7 57.6S8.9 62.6 11.4 62.6H16.3V80.7C16.3 84.4 19.3 87.3 22.9 87.3H33.2V96.4C33.3 98.1 35 99.3 36.7 98.8M33.2 56.4C32.5 55.7 32.4 54.7 33 53.9L35.9 49.8C34.9 48.1 34.1 46.3 33.6 44.4L28.5 43.6C27.6 43.4 26.9 42.6 26.9 41.7V36.7C26.9 35.8 27.6 35 28.5 34.8L33.5 34C34 32.1 34.7 30.3 35.7 28.5L32.7 24.3C32.1 23.5 32.2 22.5 32.9 21.8L34.7 20 36.5 18.2C37.2 17.5 38.2 17.4 39 18L43.1 20.9C44.9 19.8 46.7 19 48.7 18.5L49.5 13.4C49.7 12.5 50.5 11.8 51.4 11.8H56.4C57.3 11.8 58.1 12.5 58.3 13.4L59.2 18.4C61.1 18.9 62.9 19.6 64.7 20.6L68.9 17.6C69.7 17.1 70.7 17.1 71.4 17.8L73.2 19.6 75 21.4C75.7 22.1 75.8 23.1 75.2 23.9L72.2 28.1C73.2 29.8 74 31.6 74.5 33.5L79.6 34.3C80.5 34.5 81.2 35.3 81.2 36.2V41.2C81.2 42.1 80.5 42.9 79.6 43.1L74.6 44C74.1 45.9 73.4 47.7 72.4 49.5L75.4 53.7C76 54.5 75.9 55.5 75.2 56.2L73.4 58 71.6 59.8C70.9 60.5 69.9 60.6 69.1 60L64.9 57C63.2 58 61.4 58.7 59.6 59.2L58.8 64.3C58.6 65.2 57.8 65.9 56.9 65.9H51.9C51 65.9 50.2 65.2 50 64.3L49.1 59.3C47.2 58.8 45.4 58.1 43.6 57.1L39.4 60.1C38.6 60.7 37.6 60.6 36.9 59.9L35 58.2z" fill="#ffffff" data-fill-palette-color="quaternary"></path></svg></g></svg></g></svg></g></svg></g></svg></g><defs></defs></svg><rect width="395.52" height="124.20300461759084" fill="none" stroke="none" visibility="hidden"></rect></g></svg></g></svg>